<svg xmlns="http://www.w3.org/2000/svg" width="128" height="128" viewBox="0 0 128 128">
  <defs>
    <linearGradient id="g" x1="0" y1="0" x2="1" y2="1">
      <stop offset="0" stop-color="#0D8A6A"/>
      <stop offset="0.55" stop-color="#2E49FF"/>
      <stop offset="1" stop-color="#0D8A6A"/>
    </linearGradient>
  </defs>
  <rect x="8" y="8" width="112" height="112" rx="28" fill="url(#g)"/>
  <path d="M31 72c0-14 11-25 25-25h8c14 0 25 11 25 25s-11 25-25 25h-8c-14 0-25-11-25-25Zm18 0c0 4 3 7 7 7h8c4 0 7-3 7-7s-3-7-7-7h-8c-4 0-7 3-7 7Z" fill="#fff" opacity="0.95"/>
  <circle cx="64" cy="64" r="7" fill="#fff" opacity="0.95"/>
</svg>
